<?xml version="1.0" standalone="no"?><!DOCTYPE svg PUBLIC "-//W3C//DTD SVG 1.1//EN" "http://www.w3.org/Graphics/SVG/1.1/DTD/svg11.dtd"><svg t="1696976048385" class="icon" viewBox="0 0 1024 1024" version="1.1" xmlns="http://www.w3.org/2000/svg" p-id="4043" xmlns:xlink="http://www.w3.org/1999/xlink" width="200" height="200"><path d="M894.912 434.944a355.456 355.456 0 0 1-209.6-68.096v308.224c0 157.44-124.8 284.928-278.656 284.928C252.736 960 128 832.512 128 675.072s124.8-284.864 278.656-284.864c15.36 0 30.336 1.28 44.928 3.776v163.2a122.496 122.496 0 0 0-43.776-8c-68.672 0-124.352 56.896-124.352 127.168 0 70.144 55.68 127.104 124.352 127.104 68.608 0 124.288-56.96 124.288-127.104V64h155.456c0 117.696 93.312 213.12 208.448 213.12v157.696l-1.088 0.128" fill="#2c2c2c" p-id="4044"></path></svg>