<?xml version="1.0" standalone="no"?><!DOCTYPE svg PUBLIC "-//W3C//DTD SVG 1.1//EN" "http://www.w3.org/Graphics/SVG/1.1/DTD/svg11.dtd"><svg t="1714679884990" class="icon" viewBox="0 0 1024 1024" version="1.1" xmlns="http://www.w3.org/2000/svg" p-id="1268" xmlns:xlink="http://www.w3.org/1999/xlink" width="200" height="200"><path d="M450.121143 774.453782c-10.321748 75.414588-21.645983 154.624-33.654319 233.127798h201.775327s-12.27079-76.038454-37.289949-233.106286" fill="#A5A5C6" p-id="1269"></path><path d="M618.242151 1020.489143H416.466824a12.907563 12.907563 0 0 1-12.756975-14.860908c10.997244-71.882218 22.308571-150.252639 33.624201-232.92558a12.907563 12.907563 0 0 1 25.574185 3.506555 15258.12921 15258.12921 0 0 1-31.421311 218.464807h171.601748c-4.689748-29.162487-16.250622-101.199597-34.88484-218.167933a12.907563 12.907563 0 0 1 10.71758-14.77916 12.941983 12.941983 0 0 1 14.779159 10.71758c25.014857 157.037714 37.281345 233.071866 37.285647 233.080471a12.903261 12.903261 0 0 1-12.744067 14.964168z" fill="#6E6E96" p-id="1270"></path><path d="M916.557445 402.018958c13.213042-63.55684-12.774185-136.828773-74.356168-189.779899a254.898555 254.898555 0 0 0-79.95805-46.600605c-42.900437-87.952134-138.678857-149.220034-250.053916-149.220034-107.872807 0-201.14716 57.460168-245.871866 140.985009-38.189176 8.850286-75.715765 27.15321-107.902924 54.83563C90.297008 270.804975 65.772639 354.196437 89.621513 421.844975c-35.663597 42.629378-56.922353 96.032269-56.922353 154.038857 0 139.547966 122.712202 252.665546 274.100706 252.665546 36.119664 0 70.582857-6.470992 102.154756-18.191059 31.016874 0 67.661445-23.607933 106.952067-23.607932 37.793345 0 44.978555 5.016739 103.393882 24.907294a293.578218 293.578218 0 0 0 98.450286 16.883092c151.379899 0 274.100706-113.126185 274.100706-252.665546-0.004303-67.381782-28.641882-128.567933-75.294118-173.856269z" fill="#57B57A" p-id="1271"></path><path d="M306.799866 841.452639C148.544538 841.452639 19.791597 722.320134 19.791597 575.879529c0-56.978286 19.116101-111.009345 55.36484-156.715025-22.424739-73.598924 6.432269-157.893916 74.842353-216.71368 31.150252-26.787496 68.293916-46.161748 107.743731-56.242555C307.462454 58.041008 404.39395 3.510857 512.189311 3.510857c110.729681 0 211.903462 59.404908 259.317244 151.792941a266.450824 266.450824 0 0 1 79.114756 47.147026c61.044168 52.486454 91.213445 126.679126 79.876302 195.22689 47.942992 48.923966 74.261513 111.934387 74.265816 178.19321 0 146.436303-128.752941 265.573109-287.008269 265.57311-35.29358 0-69.868639-5.933176-102.77432-17.627429-9.224605-3.136538-17.291832-5.954689-24.373781-8.424336-36.476773-12.718252-45.137748-15.738622-74.696067-15.738622-18.733176 0-37.526588 6.199933-55.70474 12.197647-16.93042 5.588975-32.970218 10.876773-48.850823 11.375866-33.344538 12.094387-68.509042 18.225479-104.555563 18.225479zM512.189311 29.325983C411.867429 29.325983 322.01358 80.736807 277.693311 163.495798l-2.762219 5.158723-5.70084 1.320874c-37.505076 8.695395-72.914824 26.69284-102.4 52.047597-62.451092 53.695462-87.97795 130.448134-65.036907 195.528067l2.443831 6.935664-4.719865 5.640605C64.249546 472.287731 45.606723 522.687462 45.606723 575.883832c0 132.203563 117.170555 239.757983 261.193143 239.757983 33.727462 0 66.585815-5.847126 97.662924-17.382185l2.172773-0.808874h2.319059c12.520336 0 27.402756-4.913479 43.158588-10.110924 19.180639-6.329008 40.912672-13.501311 63.793479-13.501311 33.929681 0 45.352874 3.984134 83.197849 17.179966 7.034622 2.448134 15.041613 5.244773 24.356571 8.415731a280.464134 280.464134 0 0 0 94.289748 16.19469c144.022588 0 261.193143-107.55442 261.193143-239.757984-0.004303-61.45721-25.354756-119.911261-71.378824-164.592941l-5.089882-4.939294 1.441345-6.948571c12.735462-61.254992-14.138084-129.217613-70.135395-177.367126a240.661513 240.661513 0 0 0-75.905076-44.238521L752.941176 176.016134l-2.297546-4.719865c-42.07005-86.239731-135.66279-141.970286-238.454319-141.970286z" fill="#6E6E96" p-id="1272" data-spm-anchor-id="a313x.collections_detail.0.i0.148c3a81dJhU8O" class="selected"></path><path d="M814.144538 370.102857c10.756303-51.750723-10.394891-111.409479-60.553681-154.529344a207.613849 207.613849 0 0 0-65.105748-37.948236c-34.919261-71.615462-112.911059-121.503193-203.599596-121.503193-87.835966 0-163.779765 46.789916-200.204908 114.795563-31.094319 7.211025-61.650824 22.110655-87.861781 44.647261C141.355025 263.258353 121.382723 331.156437 140.804303 386.237311c-29.037714 34.708437-46.342454 78.189714-46.342454 125.42279 0 113.616672 99.917445 205.733647 223.180369 205.733647 29.412034 0 57.473076-5.261983 83.180639-14.804975 25.255798 0 55.093782-19.215059 87.087328-19.215059 30.775933 0 36.631664 4.07879 84.191731 20.290689a239.134118 239.134118 0 0 0 80.164571 13.73795c123.254319 0 223.184672-92.10837 223.184673-205.729345-0.004303-54.882958-23.323966-104.701849-61.306622-141.570151z" fill="#69DB94" p-id="1273"></path><path d="M117.351261 602.494924s-28.968874-127.195429 64.718521-127.195428c93.691697 0 103.023866 127.195429 169.196638 36.696201C434.606252 398.021916 205.914353 236.638655 135.59395 319.393345c-0.008605 0.004303-112.153815 193.028303-18.242689 283.101579zM618.242151 96.961613s-108.173983 121.679597-46.411294 179.0279S718.83079 210.823529 795.333916 257.295059c0.004303 0-112.050555-129.368202-177.091765-160.333446zM793.251496 645.696538c22.394622 22.398924 22.394622 58.712202 0 81.106823-22.398924 22.398924-58.712202 22.398924-81.106824 0-22.398924-22.394622-22.398924-58.707899 0-81.106823 22.398924-22.394622 58.707899-22.394622 81.106824 0M710.393546 455.809076a21.284571 21.284571 0 1 1-30.096134 30.100437 21.284571 21.284571 0 0 1 30.096134-30.100437" fill="#57B57A" p-id="1274"></path><path d="M880.954084 589.144202c29.338891 29.338891 29.338891 76.907563 0 106.246453s-76.907563 29.338891-106.246454 0c-29.334588-29.338891-29.334588-76.903261 0-106.246453 29.338891-29.338891 76.907563-29.338891 106.246454 0M702.218756 700.656941c19.206454 19.210756 19.206454 50.352403 0 69.56316-19.210756 19.210756-50.352403 19.210756-69.563159 0s-19.210756-50.352403 0-69.56316c19.210756-19.206454 50.352403-19.206454 69.563159 0M608.664739 612.080941a32.73358 32.73358 0 0 1 0 46.290824 32.729277 32.729277 0 0 1-46.295126 0 32.73358 32.73358 0 1 1 46.295126-46.290824" fill="#57B57A" p-id="1275"></path><path d="M409.556975 172.61284a23.58642 23.58642 0 1 1-33.357446 33.357446 23.58642 23.58642 0 0 1 33.357446-33.357446M462.456471 276.320807c18.087798 18.092101 18.087798 47.418084 0 65.505882-18.092101 18.092101-47.418084 18.092101-65.505883 0-18.092101-18.087798-18.092101-47.418084 0-65.505882 18.087798-18.087798 47.413782-18.087798 65.505883 0" fill="#FFFFFF" p-id="1276"></path><path d="M608.664739 459.169345a32.73358 32.73358 0 0 1 0 46.290823 32.729277 32.729277 0 0 1-46.295126 0 32.73358 32.73358 0 1 1 46.295126-46.290823" fill="#FFFFFF" opacity=".5" p-id="1277"></path><path d="M214.059025 525.561546a35.913143 35.913143 0 0 1 0 50.791261 35.913143 35.913143 0 1 1 0-50.791261" fill="#FFFFFF" opacity=".6" p-id="1278"></path></svg>